<?xml version="1.0" encoding="utf-8"?>
<!-- Generator: Adobe Illustrator 16.0.0, SVG Export Plug-In . SVG Version: 6.00 Build 0)  -->
<!DOCTYPE svg PUBLIC "-//W3C//DTD SVG 1.1//EN" "http://www.w3.org/Graphics/SVG/1.1/DTD/svg11.dtd">
<svg version="1.1" id="图层_1" xmlns="http://www.w3.org/2000/svg" xmlns:xlink="http://www.w3.org/1999/xlink" x="0px" y="0px"
	 width="150px" height="80px" viewBox="0 0 150 80" enable-background="new 0 0 150 80" xml:space="preserve">
<polygon fill="#D72828" points="126.001,80 0.5,80 22.662,0 150,0 "/>
<g>
	<g>
		<path fill="#FFFFFF" d="M77.737,30.781c0.957-0.316,1.681-0.899,2.169-1.747c0.49-0.847,0.607-1.71,0.355-2.59l-1.547-5.366
			c-0.612-2.131-2.068-2.815-4.363-2.055l-3.636,1.206l3.387,11.757L77.737,30.781z"/>
	</g>
	<g>
		<path fill="#FFFFFF" d="M32.436,28.201c1.322,0.277,2.502,0.886,3.539,1.828c1.037,0.941,2.083,2.59,2.666,4.07l-4.633,2.429
			c-0.576-1.38-1.343-2.35-2.304-2.909c-0.693-0.403-1.537-0.44-2.529-0.112c-1.054,0.35-1.729,1.043-2.03,2.082
			c-0.248,0.837-0.296,1.788,0.072,2.791c0.634,1.729,0.868,1.8,2.755,3.145c0.707,0.505,1.815,0.908,3.197,1.39
			c1.632,0.581,5.452,2.243,5.995,2.513c1.793,0.832,3.257,1.756,4.393,2.768c0.537,0.473,0.988,0.927,1.356,1.354
			c0.906,1.066,1.512,2.093,1.817,3.072c0.552,1.808,0.645,3.553,0.277,5.234l5.044-0.722l-8.161-28.061l-5.735,1.937l-1.579-5.457
			l17.582-5.922l1.579,5.457l-6.014,2.016l8.479,29.151l7.81-1.114L55.582,19.092l5.673-1.879l10.728,37.074l1.883-0.27
			l-10.81-37.451l0.189-0.062l-31.803-1.988l-4.525,14.138C28.923,28.005,30.764,27.852,32.436,28.201z"/>
	</g>
	<g>
		<path fill="#FFFFFF" d="M80.915,35.745c-0.172,0.056-1.564,0.509-1.756,0.573l-3.476,1.151l4.523,15.644l10.31-1.473
			L80.915,35.745z"/>
	</g>
	<g>
		<path fill="#FFFFFF" d="M27.511,58.132l5.366-2.175c0.713,1.685,1.562,2.867,2.544,3.554l4.858-0.694
			c0.347-0.419,0.619-0.919,0.809-1.512c0.229-0.667,0.198-1.507-0.092-2.512c-0.419-1.454-1.555-2.661-3.406-3.621
			c-1.419-0.611-3.548-1.528-6.386-2.753c-2.394-1.065-6.909-3.377-8.086-4.457c-0.292-0.278-0.563-0.574-0.816-0.882l-6.138,19.181
			l12.43-1.774C28.181,59.768,27.818,58.985,27.511,58.132z"/>
	</g>
	<g>
		<path fill="#FFFFFF" d="M86.097,24.382c0.474,1.649,0.47,3.278-0.012,4.891l11.685-1.669l-5.213-9.268L84.14,17.81
			c0.152,0.392,0.294,0.802,0.419,1.236L86.097,24.382z"/>
	</g>
	<path fill="#FFFFFF" d="M84.049,31.01l15.626,27.781l20.835,3.47l12.153-38.196L84.049,31.01z M110.093,50.361
		c-4.935,0-8.935-4-8.935-8.934c0-4.935,4-8.934,8.935-8.934s8.934,3.999,8.934,8.934C119.026,46.361,115.027,50.361,110.093,50.361
		z"/>
	<path fill="#FFFFFF" d="M110.096,34.478c-3.842,0-6.948,3.115-6.948,6.947c0,1.129,0.275,2.198,0.757,3.147v2.463h2.102
		c1.148,0.84,2.561,1.341,4.09,1.341c3.832,0,6.942-3.113,6.942-6.951C117.038,37.593,113.928,34.478,110.096,34.478z
		 M105.412,43.848c-1.421-3.345,0.095-7.304,3.666-7.628c0.223,0.827,0.444,1.347,0.666,2.175
		C106.836,38.071,104.953,40.834,105.412,43.848z"/>
	<g>
		<path fill="#FFFFFF" d="M55.918,61.283c-0.123,0.238-0.283,0.426-0.476,0.563s-0.42,0.224-0.679,0.261
			c-0.417,0.06-0.798-0.045-1.135-0.313c-0.343-0.271-0.541-0.625-0.606-1.086c-0.062-0.433,0.032-0.813,0.286-1.168
			c0.255-0.354,0.58-0.555,1-0.614c0.266-0.037,0.513-0.018,0.733,0.062s0.437,0.228,0.64,0.438l0.042,0.044l0.731-0.104
			l-0.113-0.158c-0.25-0.35-0.563-0.604-0.929-0.765c-0.368-0.158-0.769-0.207-1.189-0.146c-0.292,0.04-0.562,0.132-0.799,0.272
			s-0.447,0.33-0.618,0.56c-0.187,0.243-0.319,0.512-0.393,0.794c-0.076,0.281-0.092,0.576-0.051,0.874
			c0.093,0.635,0.38,1.141,0.857,1.508c0.384,0.293,0.823,0.44,1.302,0.44c0.114,0,0.236-0.007,0.356-0.022
			c0.406-0.06,0.764-0.214,1.063-0.455c0.3-0.248,0.523-0.566,0.666-0.956l0.068-0.186l-0.729,0.103L55.918,61.283z"/>
		<path fill="#FFFFFF" d="M36.012,60.979l-1.046,4.504l0.672-0.095l0.301-1.334l1.632-0.235l0.663,1.198l0.677-0.096l-2.26-4.034
			L36.012,60.979z M37.257,63.256l-1.176,0.167l0.359-1.654L37.257,63.256z"/>
		<polygon fill="#FFFFFF" points="57.688,61.599 57.518,60.399 59.213,60.158 59.12,59.523 57.427,59.766 57.259,58.589 
			58.953,58.349 58.862,57.715 56.532,58.048 57.142,62.315 59.474,61.982 59.383,61.357 		"/>
		<path fill="#FFFFFF" d="M41.755,61.358c-0.176-0.276-0.403-0.502-0.676-0.671c-0.199-0.124-0.42-0.203-0.659-0.237
			c-0.235-0.033-0.518-0.026-0.844,0.019l-1.265,0.181l0.61,4.268l1.087-0.153c0.426-0.06,0.731-0.133,0.933-0.215
			c0.203-0.087,0.388-0.207,0.551-0.362c0.243-0.233,0.419-0.519,0.524-0.85c0.103-0.329,0.129-0.685,0.076-1.057
			C42.045,61.946,41.932,61.635,41.755,61.358z M41.209,63.561c-0.215,0.299-0.566,0.483-1.043,0.552l-0.705,0.102l-0.433-3.032
			l0.61-0.086c0.294-0.044,0.528-0.053,0.685-0.028c0.151,0.022,0.295,0.076,0.429,0.163c0.18,0.117,0.331,0.272,0.447,0.467
			c0.117,0.196,0.194,0.419,0.229,0.667C41.499,62.856,41.425,63.26,41.209,63.561z"/>
		<polygon fill="#FFFFFF" points="44.6,59.751 43.858,63.141 42.205,60.096 41.556,60.188 43.774,64.228 44.251,64.158 
			45.248,59.659 		"/>
		<path fill="#FFFFFF" d="M46.185,59.525l-1.047,4.506l0.673-0.095l0.301-1.336l1.632-0.232l0.664,1.198l0.677-0.099l-2.26-4.033
			L46.185,59.525z M47.429,61.8l-1.177,0.17l0.361-1.655L47.429,61.8z"/>
		<polygon fill="#FFFFFF" points="51.113,58.822 51.621,62.062 49.133,59.104 48.474,59.198 49.083,63.468 49.711,63.379 
			49.206,60.133 51.695,63.095 52.355,63 51.745,58.73 		"/>
		<polygon fill="#FFFFFF" points="86.862,53.714 87.369,56.955 84.883,53.998 84.222,54.092 84.831,58.359 85.46,58.271 
			84.955,55.024 87.443,57.987 88.104,57.894 87.494,53.625 		"/>
		<path fill="#FFFFFF" d="M91.667,56.175c-0.124,0.237-0.283,0.427-0.476,0.564c-0.192,0.135-0.42,0.224-0.679,0.262
			c-0.418,0.06-0.799-0.046-1.134-0.313c-0.345-0.271-0.542-0.628-0.608-1.088c-0.061-0.432,0.032-0.812,0.287-1.167
			c0.255-0.354,0.581-0.555,1-0.614c0.267-0.039,0.513-0.019,0.732,0.062c0.221,0.081,0.438,0.226,0.64,0.438l0.043,0.043
			l0.731-0.104l-0.115-0.159c-0.249-0.35-0.562-0.604-0.929-0.764c-0.366-0.155-0.768-0.206-1.187-0.146
			c-0.294,0.042-0.562,0.135-0.8,0.275c-0.237,0.139-0.445,0.326-0.618,0.558c-0.188,0.245-0.319,0.512-0.396,0.794
			c-0.074,0.282-0.089,0.575-0.046,0.873c0.089,0.636,0.378,1.143,0.854,1.508c0.385,0.295,0.823,0.445,1.303,0.445
			c0.116,0,0.236-0.009,0.355-0.026c0.407-0.059,0.765-0.212,1.063-0.456c0.299-0.246,0.522-0.565,0.665-0.953l0.068-0.188
			l-0.729,0.104L91.667,56.175z"/>
		<polygon fill="#FFFFFF" points="95.048,52.546 94.342,52.646 93.653,54.729 92.418,52.92 91.696,53.023 93.445,55.521 
			93.669,57.098 94.297,57.01 94.072,55.437 		"/>
		<path fill="#FFFFFF" d="M62.824,58.351c-0.177-0.277-0.404-0.503-0.678-0.672c-0.196-0.124-0.419-0.205-0.657-0.238
			c-0.235-0.033-0.519-0.026-0.843,0.021l-1.268,0.18l0.61,4.268l1.089-0.156c0.423-0.06,0.729-0.129,0.933-0.216
			c0.201-0.085,0.388-0.205,0.551-0.358c0.241-0.234,0.419-0.522,0.524-0.853c0.102-0.327,0.127-0.683,0.074-1.057
			C63.112,58.936,62.999,58.627,62.824,58.351z M62.277,60.551c-0.219,0.302-0.56,0.484-1.045,0.553l-0.705,0.102l-0.432-3.033
			l0.61-0.087c0.297-0.041,0.528-0.051,0.686-0.028c0.15,0.024,0.295,0.079,0.428,0.166c0.181,0.114,0.33,0.271,0.446,0.464
			c0.117,0.195,0.195,0.419,0.229,0.668C62.565,59.848,62.492,60.251,62.277,60.551z"/>
		<polygon fill="#FFFFFF" points="82.542,58.048 82.37,56.85 84.064,56.607 83.975,55.975 82.28,56.214 82.111,55.039 
			83.808,54.797 83.717,54.164 81.386,54.498 81.996,58.766 84.327,58.434 84.237,57.807 		"/>
		<path fill="#FFFFFF" d="M81.378,56.642l-2.75,0.393l0.086,0.592l1.997-0.283c-0.054,0.297-0.183,0.559-0.389,0.778
			c-0.241,0.259-0.527,0.409-0.872,0.459c-0.435,0.062-0.824-0.04-1.163-0.304c-0.346-0.267-0.544-0.623-0.61-1.092
			c-0.063-0.438,0.031-0.821,0.288-1.175c0.256-0.356,0.592-0.556,1.024-0.619c0.248-0.033,0.481-0.013,0.694,0.063
			c0.217,0.079,0.434,0.221,0.646,0.423l0.042,0.04l0.742-0.104l-0.118-0.161c-0.251-0.342-0.557-0.589-0.913-0.742
			s-0.747-0.201-1.159-0.141c-0.309,0.043-0.588,0.135-0.827,0.271c-0.241,0.14-0.455,0.329-0.635,0.567
			c-0.187,0.243-0.319,0.511-0.394,0.792c-0.075,0.284-0.092,0.579-0.05,0.876c0.091,0.629,0.376,1.137,0.851,1.505
			c0.383,0.299,0.818,0.448,1.293,0.448c0.112,0,0.228-0.007,0.345-0.022c0.597-0.085,1.078-0.36,1.431-0.817
			c0.354-0.457,0.506-1.001,0.452-1.622L81.378,56.642z"/>
		<path fill="#FFFFFF" d="M65.851,56.717l-1.046,4.504l0.672-0.095l0.301-1.336l1.632-0.232l0.662,1.198l0.678-0.1l-2.26-4.03
			L65.851,56.717z M67.096,58.991l-1.177,0.17l0.359-1.655L67.096,58.991z"/>
		<path fill="#FFFFFF" d="M71.593,57.098c-0.175-0.276-0.402-0.504-0.674-0.673c-0.198-0.124-0.42-0.203-0.659-0.237
			c-0.234-0.033-0.518-0.027-0.844,0.02l-1.265,0.181l0.608,4.269l1.087-0.157c0.426-0.058,0.731-0.13,0.935-0.215
			c0.202-0.085,0.389-0.206,0.55-0.357c0.244-0.235,0.421-0.523,0.525-0.853c0.104-0.328,0.128-0.685,0.074-1.057
			C71.885,57.683,71.771,57.373,71.593,57.098z M71.049,59.298c-0.217,0.299-0.566,0.485-1.044,0.553l-0.706,0.101l-0.433-3.031
			l0.61-0.087c0.294-0.044,0.528-0.051,0.686-0.027c0.151,0.021,0.295,0.078,0.429,0.165c0.18,0.112,0.33,0.271,0.446,0.464
			c0.117,0.196,0.195,0.419,0.229,0.666C71.338,58.595,71.264,58.999,71.049,59.298z"/>
		<path fill="#FFFFFF" d="M74.622,55.464l-1.047,4.505l0.672-0.096l0.301-1.335l1.633-0.233l0.662,1.198l0.678-0.098l-2.26-4.032
			L74.622,55.464z M75.867,57.738l-1.177,0.168l0.358-1.653L75.867,57.738z"/>
	</g>
</g>
</svg>
